<svg width="63" height="63" viewBox="0 0 63 63" fill="none" xmlns="http://www.w3.org/2000/svg">
<path d="M41.0618 37.4428L37.5342 36.2703L36.2678 33.7442C37.4087 32.586 38.2008 31.0536 38.4679 29.4553L38.6259 28.5111H39.9766C41.2043 28.5111 42.2031 27.5149 42.2031 26.2905V21.6271C42.2031 15.5047 37.2089 10.5238 31.0703 10.5238C24.9159 10.5238 19.9375 15.4904 19.9375 21.6271V26.2905C19.9375 27.2554 20.558 28.0782 21.4219 28.3838V29.2513C21.4219 30.4758 22.4207 31.472 23.6484 31.472H24.3002C24.622 32.169 25.0384 32.8147 25.5452 33.3946C25.6503 33.5151 25.7599 33.6319 25.8722 33.7456L24.6065 36.2703L21.0788 37.4429C16.9771 38.8069 14 43.1135 14 47.6828C14 48.0916 14.3323 48.423 14.7422 48.423H47.3984C47.8083 48.423 48.1406 48.0916 48.1406 47.6828C48.1406 43.1135 45.1636 38.8069 41.0618 37.4428ZM40.7188 26.2905C40.7188 26.6986 40.3858 27.0307 39.9766 27.0307H38.8438C39.0325 25.5732 39.1582 24.0222 39.2088 22.4946C39.2103 22.4515 39.2114 22.4096 39.2128 22.3673H40.7188V26.2905ZM22.1641 27.0307C21.7548 27.0307 21.4219 26.6986 21.4219 26.2905V22.3673H22.9284C22.9308 22.4445 22.9334 22.5221 22.9363 22.6002C22.9364 22.6028 22.9365 22.6054 22.9366 22.6081C22.9366 22.6083 22.9366 22.6085 22.9366 22.6088C22.9886 24.0945 23.1127 25.6052 23.297 27.0306H22.1641V27.0307ZM23.6484 29.9915C23.2392 29.9915 22.9062 29.6595 22.9062 29.2513V28.5111H23.5147L23.6726 29.4555C23.7028 29.6351 23.7398 29.8139 23.7826 29.9915H23.6484ZM22.9075 20.8869H21.4501C21.826 15.9258 25.9772 12.0042 31.0703 12.0042C36.1408 12.0042 40.3102 15.9253 40.6905 20.8869H39.2332C39.1798 16.7989 35.8419 13.4847 31.7346 13.4847H30.4061C26.2989 13.4847 22.9609 16.7989 22.9075 20.8869ZM30.4061 14.9651H31.7346C35.0602 14.9651 37.7519 17.6781 37.75 20.9912C37.75 21.2242 37.7481 21.427 37.7442 21.6115C37.7442 21.6139 37.7441 21.6163 37.7441 21.6188L36.8158 21.4865C34.2939 21.1274 31.9126 19.9399 30.1107 18.1428C29.9715 18.004 29.7828 17.926 29.5859 17.926C27.5927 17.926 25.6847 18.8317 24.4234 20.3619C24.7343 17.3478 27.2891 14.9651 30.4061 14.9651ZM25.3213 29.9915C24.9498 28.7589 24.5247 25.1318 24.4307 22.8075L25.4296 21.4791C26.347 20.2595 27.7743 19.5018 29.2926 19.4148C31.2904 21.3109 33.8748 22.5631 36.6059 22.952L37.6986 23.1077C37.6255 24.6537 37.4763 26.205 37.2625 27.6318C37.2624 27.6322 37.2623 27.6328 37.2622 27.6333C37.1943 28.092 37.1407 28.3872 37.0038 29.2117C36.6107 31.563 34.8516 33.6893 32.5294 34.2684C31.5737 34.5064 30.5668 34.5063 29.6116 34.2684C28.1616 33.9069 26.8321 32.9062 25.974 31.472H27.487C27.7934 32.3335 28.6183 32.9524 29.5859 32.9524H31.0703C32.3005 32.9524 33.2969 31.9587 33.2969 30.7318C33.2969 29.5073 32.298 28.5111 31.0703 28.5111H29.5859C28.5968 28.5111 27.7841 29.1483 27.4858 29.9915H25.3213ZM29.5235 35.7664C30.0326 35.8734 30.5516 35.9281 31.0703 35.9281C31.4764 35.9281 31.8825 35.8942 32.284 35.8285L30.9726 37.2117L29.5235 35.7664ZM29.9522 38.2878L27.5981 40.7707C26.9501 39.5335 26.3932 38.2459 25.9365 36.9277L26.8205 35.1643L29.9522 38.2878ZM35.1944 34.9135L36.204 36.9276C35.7465 38.248 35.1895 39.5361 34.5421 40.7718L32.0225 38.2589L35.1944 34.9135ZM28.8438 30.7318C28.8438 30.3231 29.1761 29.9915 29.5859 29.9915H31.0703C31.4796 29.9915 31.8125 30.3236 31.8125 30.7318C31.8125 31.1405 31.4801 31.472 31.0703 31.472H29.5859C29.1767 31.472 28.8438 31.1399 28.8438 30.7318ZM15.5141 46.9425C15.8082 43.2756 18.2551 39.9425 21.5482 38.8473L24.6724 37.8089C25.2447 39.3874 25.9538 40.9217 26.7848 42.379C26.7863 42.3815 26.7876 42.3841 26.789 42.3865C26.789 42.3866 26.7891 42.3866 26.7891 42.3866C27.3963 43.4517 28.0797 44.4926 28.8206 45.4807L29.7336 46.9425H15.5141ZM31.0703 46.2827L30.0638 44.671C30.0525 44.653 30.0405 44.6354 30.0277 44.6184C29.4267 43.8188 28.866 42.9826 28.3554 42.1267L31.0023 39.335L33.7912 42.1166C33.2772 42.9787 32.7146 43.8184 32.1131 44.6183C32.0767 44.6666 32.1283 44.5904 31.0703 46.2827ZM32.407 46.9425L33.32 45.4808C34.0641 44.4889 34.7525 43.4397 35.3657 42.3621C35.3694 42.3556 35.3729 42.3489 35.3766 42.3424C35.3771 42.3416 35.3775 42.3408 35.378 42.34C36.1985 40.8966 36.9001 39.3757 37.4683 37.8089L40.5924 38.8473C43.8855 39.9425 46.3324 43.2756 46.6266 46.9425H32.407Z" fill="#B0956E"/>
<circle cx="31.5" cy="31.5" r="30.5" stroke="#B0956E" stroke-width="2"/>
</svg>
