<?xml version="1.0" standalone="no"?>
<!DOCTYPE svg PUBLIC "-//W3C//DTD SVG 20010904//EN"
 "http://www.w3.org/TR/2001/REC-SVG-20010904/DTD/svg10.dtd">
<svg version="1.0" xmlns="http://www.w3.org/2000/svg"
 width="318.000000pt" height="318.000000pt" viewBox="0 0 318.000000 318.000000"
 preserveAspectRatio="xMidYMid meet">
<metadata>
Created by potrace 1.11, written by Peter Selinger 2001-2013
</metadata>
<g transform="translate(0.000000,318.000000) scale(0.100000,-0.100000)"
fill="#000000" stroke="none">
<path d="M1517 3174 c-1 -1 -37 -4 -80 -8 -192 -16 -376 -70 -569 -167 -66
-33 -168 -95 -168 -102 0 -1 153 -2 341 -2 204 0 378 -5 435 -12 182 -23 323
-88 425 -196 48 -51 109 -151 109 -180 0 -18 13 -23 70 -26 74 -3 248 -31 360
-57 l105 -25 0 -274 c0 -151 -2 -276 -5 -276 -3 -1 -48 -3 -101 -4 l-96 -3
-22 72 c-48 148 -129 270 -220 328 -57 36 -68 35 -76 -4 -39 -185 -192 -329
-445 -419 l-65 -23 50 -14 c357 -96 538 -239 584 -464 13 -58 15 -154 6 -199
-4 -23 2 -31 49 -62 247 -164 380 -377 389 -623 1 -35 5 -64 8 -64 12 0 189
182 232 238 99 129 227 352 227 394 0 8 3 18 7 22 14 14 68 193 79 264 3 20 8
40 10 43 2 4 7 51 11 105 24 332 -24 584 -162 860 -79 158 -165 280 -284 401
-236 239 -520 390 -849 453 -81 15 -344 33 -355 24z"/>
<path d="M895 2773 c-49 -11 -77 -28 -90 -54 -13 -23 -15 -102 -15 -459 l0
-430 90 0 c86 0 90 1 91 23 3 102 79 271 165 366 105 117 297 217 471 246 24
4 45 10 47 14 8 12 -33 113 -60 148 -52 68 -137 116 -249 139 -37 7 -422 14
-450 7z"/>
<path d="M375 2604 c-170 -207 -274 -417 -329 -666 -90 -402 -28 -791 184
-1161 l45 -79 52 5 c63 7 109 32 121 66 9 28 10 1906 2 1915 -3 3 -37 -33 -75
-80z"/>
<path d="M1598 2272 c-143 -52 -250 -195 -262 -351 -3 -44 8 -56 18 -18 11 44
126 203 211 292 l87 90 -48 -70 c-85 -123 -261 -355 -266 -350 -2 3 -5 -2 -5
-10 0 -8 1 -15 2 -15 12 0 120 43 142 56 107 66 173 188 186 342 5 59 4 59
-65 34z"/>
<path d="M790 1253 c0 -512 -1 -508 62 -534 52 -22 512 -19 596 4 117 32 188
75 246 152 l26 33 -138 72 c-233 123 -374 225 -469 343 -82 101 -136 225 -147
337 -2 25 -5 48 -5 51 -1 3 -39 6 -86 6 l-85 0 0 -464z"/>
<path d="M1360 1683 c49 -133 159 -244 351 -352 31 -17 58 -31 61 -31 4 0 0
27 -8 60 -43 185 -187 316 -382 347 -32 5 -32 4 -22 -24z m243 -181 c65 -66
142 -161 135 -166 -1 -2 -84 78 -183 177 -165 165 -173 175 -99 118 45 -34
111 -92 147 -129z"/>
<path d="M1925 763 c-54 -40 -238 -121 -320 -140 -11 -2 -24 -5 -30 -7 -5 -2
-26 -6 -45 -9 -19 -4 -48 -10 -65 -13 -16 -3 -268 -7 -558 -9 -290 -1 -530 -4
-532 -7 -15 -15 244 -249 350 -316 75 -48 198 -112 206 -107 4 3 8 27 7 53 0
89 -10 82 104 79 l101 -2 18 -65 c11 -36 28 -89 40 -117 18 -46 26 -54 58 -62
149 -39 391 -45 591 -14 73 11 267 65 310 86 54 26 59 47 55 207 -6 189 -74
314 -235 433 -32 23 -37 24 -55 10z"/>
</g>
</svg>
